<svg id="Capa_5" data-name="Capa 5" xmlns="http://www.w3.org/2000/svg" viewBox="0 0 361 361"><defs><style>.cls-1{fill:#8188fb;stroke:#8188fb;stroke-miterlimit:10;stroke-width:9px;}.cls-2{fill:#b9bef9;}.cls-3{opacity:0;}</style></defs><path class="cls-1" d="M1320.2,777.16c-4.72-22.63-18.86-37.92-42-45.44-6.49-2.11-13.35-2.26-20-2.41l-3.06-.07c-1.88,0-2.56-.6-3-2.46a59.43,59.43,0,0,0-12.05-24.45c-9.47-11.24-22.19-16.54-37.81-15.78a81.25,81.25,0,0,0-11.54,1.68c-1.27.24-2.56.5-3.85.73s-2.19.12-3-1.27a67.84,67.84,0,0,0-5.08-7.26c-22-27.95-50.69-38.72-85.25-32a82.71,82.71,0,0,0-47,27.82,80.63,80.63,0,0,0-19.38,50.23c-.08,4-1,6.6-5.28,7.23a2.42,2.42,0,0,0-.59.2l-.06,0c-20.11,8.56-32.46,23.62-36.74,44.78-1,4.75-.87,9.79-.8,14.67,0,2,.08,4,0,6-.25,15.07,5.2,28.72,16.25,40.56,9.15,9.82,20,15.74,32.25,17.6a135.77,135.77,0,0,0,19.63,1h.59c12.15,0,24.4,0,36.6.06v-.42c-12.2,0-24.45,0-36.6-.06h-.59a137.53,137.53,0,0,1-19.56-1c-12.16-1.84-22.93-7.72-32-17.47-11-11.77-16.39-25.32-16.13-40.27,0-2,0-4,0-6-.09-4.86-.18-9.87.78-14.58,4.24-21,16.53-36,36.5-44.48l.05,0a1.75,1.75,0,0,1,.49-.16c4.57-.67,5.56-3.53,5.64-7.65.74-37.07,29.13-70.44,66.07-77.63,34.39-6.69,62.95,4,84.83,31.84a63.13,63.13,0,0,1,5.06,7.22c.92,1.58,1.88,1.73,3.44,1.46,1.29-.23,2.59-.48,3.85-.73a82.64,82.64,0,0,1,11.49-1.67c15.47-.76,28.09,4.5,37.47,15.63a58.78,58.78,0,0,1,12,24.28c.51,2,1.33,2.73,3.41,2.78l3.07.08c6.59.14,13.41.29,19.84,2.38,23,7.47,37,22.66,41.73,45.13,1.27,6.09,1.17,12.6,1.08,18.91,0,2-.06,4-.05,6,.13,21.61-16.28,48.19-46.93,54.94a37.12,37.12,0,0,1-7.29.71c-17,.14-33.89.25-50.58.34v.43c16.69-.1,33.61-.21,50.59-.35a34.89,34.89,0,0,0,7.37-.74,60.88,60.88,0,0,0,34.63-21.18c8.21-10.11,12.7-22.24,12.62-34.15,0-2,0-4,0-6C1321.39,789.84,1321.49,783.3,1320.2,777.16Z" transform="translate(-972 -606.5)"/><path class="cls-2" d="M1218.05,806.75c-21.15-10.07-42.23-20.27-63.39-30.32a5.26,5.26,0,0,0-3.49-.27,1.84,1.84,0,0,0-.57.2c-21.19,10-42.32,20.08-63.51,30.09a3.86,3.86,0,0,0-2.59,4.13c.15,10.27.17,20.52.15,30.78,0,5.55,0,11.09-.06,16.63v.56q-.09,13.13-.24,26.26a4.88,4.88,0,0,0,2.65,4.93q31.18,18.25,62.24,36.75a5.33,5.33,0,0,0,3.84,1,6.65,6.65,0,0,0,2.21-.9q31.26-18.46,62.67-36.66a4.7,4.7,0,0,0,2.53-4.68c0-8.85,0-17.69,0-26.54v-.55c0-3.29,0-6.59,0-9.88,0-12.44,0-24.88.11-37.32A3.91,3.91,0,0,0,1218.05,806.75ZM1147.59,858v.55q-.1,26.54-.12,53.06a11.64,11.64,0,0,1-.22,1.54,13.5,13.5,0,0,1-2-.78c-16.34-9.62-32.7-19.23-49-29a4.89,4.89,0,0,1-2-3.52c-.06-7.09-.07-14.18-.07-21.28V858q0-10,0-20c0-5.06,0-10.13.08-15.18,0-1.15.1-2.29.2-4,7,3.06,13.62,5.79,20.14,8.75,10.16,4.63,20.25,9.4,30.4,14.05,1.57.72,2.6,1.44,2.59,3.51Q1147.63,851.55,1147.59,858Zm7.68-25.17a7.15,7.15,0,0,1-2.19.64,6.65,6.65,0,0,1-3.49-.69q-16.1-7.39-32.24-14.64c-4.24-1.9-8.57-3.64-12.82-5.5-.92-.41-1.79-1-3.08-1.69a20.81,20.81,0,0,1,2.36-1.62c15.51-7.25,31-14.52,46.55-21.67a6.14,6.14,0,0,1,2.72-.43,4.88,4.88,0,0,1,1.65.4c15.58,7.33,31.11,14.82,46.62,22.28.48.24.92.53,2.14,1.23l-17.1,7.71C1176,823.47,1165.59,828,1155.27,832.8Zm55.44,25.36v.55c0,6.87,0,13.71,0,20.58a4.84,4.84,0,0,1-2.78,4.82c-15.33,8.84-30.55,17.84-45.82,26.77-1.35.78-2.73,1.53-4.67,2.62-.1-1.82-.18-2.85-.18-3.9,0-16.94.08-33.9.08-50.84v-.56q0-5.93,0-11.83c0-2.61.74-4,3.21-5,15.4-6.72,30.69-13.67,46-20.54,1.15-.53,2.32-1,4-1.68.09,1.44.26,2.45.26,3.45C1210.76,834.43,1210.72,846.28,1210.71,858.16Z" transform="translate(-972 -606.5)"/><g class="cls-3"><path d="M1332,607.5v359H973v-359h359m1-1H972v361h361v-361Z" transform="translate(-972 -606.5)"/></g></svg>