<svg id="Capa_5" data-name="Capa 5" xmlns="http://www.w3.org/2000/svg" viewBox="0 0 361 361"><defs><style>.cls-1{fill:#b9bef9;}.cls-2{fill:#8188fb;}.cls-3{fill:none;stroke:#8188fb;stroke-miterlimit:10;stroke-width:6px;}.cls-4{opacity:0;}</style></defs><path class="cls-1" d="M1203.24,752.17c-16.37-7.79-32.69-15.69-49.07-23.47a4.21,4.21,0,0,0-2.7-.21,2.18,2.18,0,0,0-.45.16c-16.4,7.72-32.75,15.54-49.15,23.28a3,3,0,0,0-2,3.21c.11,7.94.13,15.88.11,23.82q0,16.81-.23,33.64a3.78,3.78,0,0,0,2,3.81q24.14,14.13,48.18,28.45a4.17,4.17,0,0,0,3,.73,5.16,5.16,0,0,0,1.72-.7q24.19-14.29,48.5-28.38a3.6,3.6,0,0,0,2-3.62c0-9.54,0-19.08,0-28.62s0-19.25.09-28.88A3,3,0,0,0,1203.24,752.17Zm-54.64,81.14a9.31,9.31,0,0,1-.16,1.2,10.38,10.38,0,0,1-1.59-.6c-12.65-7.45-25.31-14.89-37.9-22.44a3.79,3.79,0,0,1-1.51-2.74c-.1-10.78,0-21.57,0-32.35q0-5.88.06-11.76c0-.88.08-1.77.16-3.12,5.42,2.36,10.54,4.49,15.58,6.78,7.87,3.57,15.68,7.27,23.54,10.87,1.21.56,2,1.11,2,2.72C1148.65,799,1148.64,816.16,1148.6,833.31Zm6-61a5.13,5.13,0,0,1-1.7.49,5,5,0,0,1-2.7-.52q-12.45-5.74-25-11.34c-3.28-1.47-6.63-2.82-9.92-4.25-.72-.31-1.38-.75-2.39-1.31a15.52,15.52,0,0,1,1.83-1.25c12-5.61,24-11.25,36-16.77a4.5,4.5,0,0,1,2.1-.33,3.7,3.7,0,0,1,1.28.3c12.06,5.68,24.08,11.47,36.09,17.25.37.17.71.4,1.66.94-4.74,2.14-9,4.07-13.24,6C1170.7,765.11,1162.63,768.66,1154.64,772.33Zm42.91,36a3.73,3.73,0,0,1-2.15,3.73c-11.86,6.84-23.64,13.8-35.46,20.71-1,.62-2.12,1.2-3.62,2-.07-1.41-.14-2.22-.14-3,0-16.31.1-32.61.06-48.93,0-2,.57-3.06,2.48-3.9,11.92-5.21,23.76-10.59,35.63-15.91.89-.4,1.79-.76,3.05-1.3.08,1.11.21,1.89.21,2.67C1197.58,779,1197.52,793.68,1197.55,808.32Z" transform="translate(-972 -606.5)"/><path class="cls-2" d="M1223.45,779.84c-2.4,10.55-4.55,21.16-6.67,31.78a14.57,14.57,0,0,0-.29,2.12l8.35-37.35A12.43,12.43,0,0,0,1223.45,779.84Zm-5.13,37.39a8.7,8.7,0,0,0,4.06-.21c6.21-1.37,12.39-2.91,18.59-4.37Zm39.78-10.14v0l.52-.46Zm55.55,60.07c-1.44-3.73-4.62-5-8.49-5-7.88.06-15.77,0-23.64,0-1.51,0-3-.13-5-.22v-5.36q0-28.23,0-56.45a12.11,12.11,0,0,0-.15-3.77,7.22,7.22,0,0,1,1.48-7.38l-10.67,10.4c.21-.17.44-.36.65-.55.51-.42,1.09-.75,2.08-1.43V861.9c-1.76.11-3.24.28-4.73.28q-120.73,0-241.48.11c-3.43,0-4.61-.89-4.6-4.48,0-19.25-.3-38.52-.28-57.77,0-34,.28-68.09.29-102.15,0-4,1.17-5.4,5.29-5.39q120.12.13,240.23,0c4,0,5.47,1.2,5.37,5.3-.22,9.85,0,19.7-.11,29.55,0,1.33-.15,3-1,3.92-2.73,3-5.55,5.87-8.39,8.75l17-17-.83-.55c-.08-1.34-.22-2.67-.23-4,0-7,0-14.08,0-21.11,0-8.46-3-11.31-11.51-11.31H1023.93c-8.17,0-11.29,3.08-11.31,11.16,0,11.26-.08,22.52,0,33.78.15,20.81.48,41.61.56,62.42,0,8.81-.48,17.61-.54,26.41q-.15,19.4,0,38.8c0,2.73-.82,3.72-3.61,3.67-8.3-.14-16.61,0-24.9,0-3.67,0-6.79,1-8.39,4.52-1.7,3.68-1.2,7.84,1.59,10.24,6.37,5.46,12.24,11.11,22.2,11,67-.43,134-.23,201-.23,30.41,0,60.8.06,91.21-.08a20.11,20.11,0,0,0,9.26-2.07,50.94,50.94,0,0,0,10.29-8A9.29,9.29,0,0,0,1313.65,867.16Zm-135.12,2c-4.42,2.84-64.15,2.69-67.59,0ZM1307,872.31c-4.83,3.29-8.07,9-15.09,9q-147.35-.13-294.69-.21c-2.77,0-5.63-1.87-8.27-3.21a20.48,20.48,0,0,1-5-3.79c-1.11-1.12-1.78-2.7-3.15-4.89,2.78-.15,4.28-.3,5.79-.31q55.95,0,111.89-.05c2.45,0,4,.4,5.33,2.91,2.1,4,6,5.94,10.5,6q30.39.14,60.79,0c4.65,0,8.18-2.4,10.85-6.32a6,6,0,0,1,4.15-2.39q57-.2,114-.1a30.1,30.1,0,0,1,3.5.44C1307.37,870.52,1307.53,871.94,1307,872.31Zm18.61-152.14c-4-4.17-8.1-8.22-12.25-12.22-3.57-3.43-8-5.1-12.78-3.9a19.5,19.5,0,0,0-8.37,4.41c-.63.6-1.25,1.19-1.87,1.81l33.83,32.86,1.1-1.1C1331.75,735.58,1331.87,726.72,1325.61,720.17Zm-3.85,15.52-23.63-23.49c3.73-2.7,7.32-2.67,10.88.73q6.09,5.82,11.92,11.93C1324.27,728.36,1324.31,732,1321.76,735.69Z" transform="translate(-972 -606.5)"/><path class="cls-1" d="M1324.71,743.18l-32.82-34.51,1-1a14.3,14.3,0,0,1,20.93.08l11.81,12.42a16.13,16.13,0,0,1,.08,22Z" transform="translate(-972 -606.5)"/><path class="cls-1" d="M1224.84,776.39l-8.35,37.35a14.57,14.57,0,0,1,.29-2.12c2.12-10.62,4.27-21.23,6.67-31.78A12.43,12.43,0,0,1,1224.84,776.39Z" transform="translate(-972 -606.5)"/><path class="cls-1" d="M1241,812.65c-6.2,1.46-12.38,3-18.59,4.37a8.7,8.7,0,0,1-4.06.21Z" transform="translate(-972 -606.5)"/><path class="cls-2" d="M1290.34,710.27c-4.21,4.19-8.1,8.75-12.15,13.11l-.57-.39-17,17-4.46,4.53-.05,0-16.88,16.88-14.36,15-8.35,37.35c-.1,2,.45,3.12,1.83,3.49l22.65-4.58,3.48-.84a16.56,16.56,0,0,1,2-.28l8.31-1.68,3.88-3.19.11-.09c2.79-2.43,5.65-4.78,8.49-7.16l10.67-10.4a18.66,18.66,0,0,1,1.44-1.57q22.51-22.07,44.84-44.31Zm-41.51,94.47L1236.28,808l-12.61,3.26a1.23,1.23,0,0,1-1.5-1.5l3.26-12.61,3.24-12.55a1.23,1.23,0,0,1,2.06-.56l9.34,9.32,9.33,9.34A1.24,1.24,0,0,1,1248.83,804.74Z" transform="translate(-972 -606.5)"/><rect class="cls-3" x="57.94" y="97.42" width="229.57" height="147.58" rx="1.84"/><g class="cls-4"><path d="M1332,607.5v359H973v-359h359m1-1H972v361h361v-361Z" transform="translate(-972 -606.5)"/></g></svg>