<svg id="Capa_5" data-name="Capa 5" xmlns="http://www.w3.org/2000/svg" viewBox="0 0 361 361"><defs><style>.cls-1{fill:#b9bef9;}.cls-2{fill:#8188fb;}.cls-3{fill:none;stroke:#8188fb;stroke-linecap:round;stroke-miterlimit:10;stroke-width:6px;}.cls-4{opacity:0;}</style></defs><path class="cls-1" d="M1117.91,775.66c-11.45-5.46-22.87-11-34.32-16.42a2.9,2.9,0,0,0-1.89-.15,1.42,1.42,0,0,0-.31.11c-11.48,5.4-22.91,10.87-34.38,16.29a2.1,2.1,0,0,0-1.4,2.24c.08,5.56.09,11.1.08,16.66,0,7.84-.06,15.68-.16,23.53a2.62,2.62,0,0,0,1.43,2.66q16.89,9.88,33.7,19.9a2.88,2.88,0,0,0,2.07.51,3.76,3.76,0,0,0,1.2-.48q16.92-10,33.93-19.85a2.52,2.52,0,0,0,1.36-2.54c0-6.67,0-13.34,0-20s0-13.47.07-20.2A2.13,2.13,0,0,0,1117.91,775.66Zm-38.22,56.75a6,6,0,0,1-.11.83,6.78,6.78,0,0,1-1.11-.42c-8.84-5.21-17.7-10.41-26.51-15.69a2.64,2.64,0,0,1-1-1.91c-.07-7.55,0-15.09,0-22.64,0-2.74,0-5.48,0-8.22,0-.62.06-1.24.11-2.18,3.79,1.65,7.37,3.14,10.9,4.74,5.5,2.5,11,5.09,16.46,7.6.85.39,1.41.78,1.4,1.9C1079.73,808.41,1079.73,820.41,1079.69,832.41Zm4.23-42.65a3.59,3.59,0,0,1-1.19.34,3.54,3.54,0,0,1-1.89-.37q-8.7-4-17.45-7.93c-2.3-1-4.63-2-6.94-3-.5-.22-1-.53-1.67-.92a11.74,11.74,0,0,1,1.28-.87c8.39-3.93,16.78-7.87,25.2-11.73a3.19,3.19,0,0,1,1.47-.23,2.48,2.48,0,0,1,.89.21c8.44,4,16.84,8,25.25,12.06.25.12.5.29,1.16.66-3.32,1.5-6.29,2.85-9.26,4.18C1095.15,784.71,1089.51,787.18,1083.92,789.76Zm30,25.17a2.58,2.58,0,0,1-1.5,2.6c-8.3,4.79-16.54,9.66-24.81,14.49-.73.43-1.48.84-2.53,1.43,0-1-.09-1.55-.09-2.12,0-11.41.06-22.81,0-34.23a2.5,2.5,0,0,1,1.74-2.72c8.33-3.65,16.61-7.41,24.92-11.13.61-.28,1.24-.53,2.12-.91.06.78.15,1.32.15,1.87C1114,794.45,1113.91,804.68,1113.93,814.93Z" transform="translate(-972 -606.5)"/><path class="cls-2" d="M1313.65,867.16c-1.44-3.73-4.62-5-8.49-5-7.88.06-15.77,0-23.64,0-1.37,0-2.73-.11-4.44-.19h-8.52c-1.18.09-2.26.18-3.34.18q-120.73,0-241.48.11a8.39,8.39,0,0,1-2.51-.29H1011a5.76,5.76,0,0,1-2,.24c-8.3-.14-16.61,0-24.9,0-3.67,0-6.79,1-8.39,4.52-1.7,3.68-1.2,7.84,1.59,10.24,6.37,5.46,12.24,11.11,22.2,11,67-.43,134-.23,201-.23,30.41,0,60.8.06,91.21-.08a20.11,20.11,0,0,0,9.26-2.07,50.94,50.94,0,0,0,10.29-8A9.29,9.29,0,0,0,1313.65,867.16Zm-135.12,2c-4.42,2.84-64.15,2.69-67.59,0ZM1307,872.31c-4.83,3.29-8.07,9-15.09,9q-147.35-.13-294.69-.21c-2.77,0-5.63-1.87-8.27-3.21a20.48,20.48,0,0,1-5-3.79c-1.11-1.12-1.78-2.7-3.15-4.89,2.78-.15,4.28-.3,5.79-.31q55.95,0,111.89-.05c2.45,0,4,.4,5.33,2.91,2.1,4,6,5.94,10.5,6q30.39.14,60.79,0c4.65,0,8.18-2.4,10.85-6.32a6,6,0,0,1,4.15-2.39q57-.2,114-.1a30.1,30.1,0,0,1,3.5.44C1307.37,870.52,1307.53,871.94,1307,872.31Zm-48.9-65.22v0l.25-.23Z" transform="translate(-972 -606.5)"/><rect class="cls-3" x="57.94" y="97.42" width="229.57" height="147.58" rx="1.84"/><path class="cls-2" d="M1266.55,691.5A3.46,3.46,0,0,1,1270,695v164.6a3.46,3.46,0,0,1-3.45,3.45H1022a3.46,3.46,0,0,1-3.45-3.45V695a3.46,3.46,0,0,1,3.45-3.45h244.6m0-5H1022a8.45,8.45,0,0,0-8.45,8.45v164.6A8.45,8.45,0,0,0,1022,868h244.6a8.45,8.45,0,0,0,8.45-8.45V695a8.45,8.45,0,0,0-8.45-8.45Z" transform="translate(-972 -606.5)"/><rect class="cls-2" x="155.95" y="124.4" width="22" height="13" rx="4.36"/><rect class="cls-2" x="120.95" y="124.4" width="22" height="13" rx="4.36"/><path class="cls-1" d="M1151.26,807.16h-6.34c-3.55,0-6.42-2-6.42-4.41v-4.18c0-2.44,2.87-4.41,6.42-4.41h6.34c3.54,0,6.42,2,6.42,4.41v4.18C1157.68,805.19,1154.8,807.16,1151.26,807.16Z" transform="translate(-972 -606.5)"/><rect class="cls-1" x="195.74" y="124.4" width="70.3" height="13" rx="4.41"/><rect class="cls-2" x="204.41" y="187.6" width="57.52" height="13" rx="4.41"/><g class="cls-4"><path d="M1332,607.5v359H973v-359h359m1-1H972v361h361v-361Z" transform="translate(-972 -606.5)"/></g></svg>