<svg id="Capa_5" data-name="Capa 5" xmlns="http://www.w3.org/2000/svg" viewBox="0 0 361 361"><defs><style>.cls-1{fill:#8188fb;}.cls-2{fill:#b9bef9;}.cls-3{opacity:0;}</style></defs><path class="cls-1" d="M1120.42,618c2.84.3,5.69.56,8.53.9a126.83,126.83,0,0,1,60.1,23.16c22.81,16.38,39.12,37.78,48.06,64.46,9.66,28.84,9.32,57.71-1,86.37a126.24,126.24,0,0,1-15.55,29.8c-.32.45-.61.91-1.14,1.7,2.21,2.11,4.47,4.2,6.64,6.37,4.91,4.9,9.75,9.87,14.65,14.78,2.68,2.69,5.46,5.27,8.1,8,1.08,1.11,2,.45,3,.09a20.49,20.49,0,0,1,15.59.51c3.51,1.5,6.2,4.1,8.84,6.79,6.29,6.4,12.66,12.71,19,19.05l24,24a6.86,6.86,0,0,1,1.83,7.58,6.52,6.52,0,0,1-5.77,4.56,7.32,7.32,0,0,1-6.12-2.28l-30.51-30.51q-7.31-7.31-14.61-14.6c-3.08-3.06-7.24-3.14-10.31-.11q-9.81,9.7-19.52,19.51c-3.24,3.27-3.12,7.36.18,10.66l44.76,44.78c3.09,3.1,3.41,7.31.6,10.17a19,19,0,0,1-3.55,2.3h-3.31c-3.89-1.76-6.33-5.21-9.24-8.08-9.65-9.52-19.19-19.15-28.77-28.73-3.62-3.62-7.31-7.17-10.84-10.88-6.26-6.57-7.74-14.22-4.73-22.75.3-.83.48-1.43-.28-2.19q-14.36-14.26-28.66-28.61c-.19-.19-.41-.36-.69-.61-2.35,1.54-4.65,3.13-7,4.59-27.89,17.12-58,23.18-90.31,18-5-.8-9.91-2.11-14.81-3.35a6.92,6.92,0,0,1-5.23-8.73,7.06,7.06,0,0,1,9-4.72,116.8,116.8,0,0,0,46.15,3.74,124.72,124.72,0,0,0,23-5.18,99.25,99.25,0,0,0,20.44-9.15A117.18,117.18,0,0,0,1218,799.25a111.27,111.27,0,0,0,11.85-54.13c-1.17-32.74-14-60.31-38-82.53-17.43-16.13-38-26.26-61.58-29.2-44.36-5.54-80.89,9.53-108.54,44.51C1002.3,702.49,995,731,998.45,762.19a104.86,104.86,0,0,0,6,25.51,117.31,117.31,0,0,0,28.9,44.34c.68.65,1.37,1.28,2,2a7,7,0,0,1,.13,10,7.2,7.2,0,0,1-9.88.2,130.48,130.48,0,0,1-41.79-87.3c0-.65-.19-1.29-.29-1.93V741.36c.36-3.33.63-6.68,1.09-10,3.57-26.22,13.95-49.4,31.55-69.17q33-37.05,82.37-43.27c2.78-.35,5.57-.62,8.35-.92Zm80.77,227.24,27.7,27.72c3.18-3.15,6.44-6.39,9.59-9.53l-27.77-27.77Z" transform="translate(-972 -606.5)"/><path class="cls-2" d="M1011.65,748.1A102.11,102.11,0,1,1,1113.7,850.37C1057.38,850.45,1011.66,804.52,1011.65,748.1Zm103.58-87.81c-48.22-1-88,37.79-89.45,85-1.53,48.7,36.74,89.47,85.26,90.94,49.09,1.49,89.67-37.43,90.68-85.77A87.92,87.92,0,0,0,1115.23,660.29Z" transform="translate(-972 -606.5)"/><path class="cls-2" d="M1046.11,855.54c0-3.71,3.58-7,7.58-7,3.22,0,6.46,3.48,6.52,6.92a7,7,0,0,1-6.79,7.11C1048.6,862.53,1046.23,859.28,1046.11,855.54Z" transform="translate(-972 -606.5)"/><path class="cls-1" d="M1054,746.82V716.09a22.73,22.73,0,0,1,0-3.3,7.2,7.2,0,0,1,4.39-5.59q20.26-9.71,40.51-19.46c3.68-1.77,7.37-3.49,11-5.31a8.06,8.06,0,0,1,7.6,0q25.82,12.47,51.67,24.85a7.22,7.22,0,0,1,4.44,6.94q0,32.9,0,65.78a7.21,7.21,0,0,1-4.29,6.71q-16,8.45-32,16.94c-6.47,3.43-13,6.81-19.41,10.3a8.1,8.1,0,0,1-8.31,0c-11.12-5.95-22.29-11.81-33.43-17.71-6-3.19-12-6.42-18.08-9.59a7.22,7.22,0,0,1-4.21-6.91q0-16.46,0-32.9Zm52.54,49.57a8.74,8.74,0,0,0,.2-1.25c0-4.94,0-9.89,0-14.84,0-10.85,0-21.71,0-32.57a3,3,0,0,0-1.86-3.18c-9.37-4.78-18.69-9.67-28-14.52l-8.76-4.56c0,.66-.11,1.08-.11,1.5,0,15.82,0,31.64,0,47.46a2.25,2.25,0,0,0,1.45,2.27q10.51,5.5,21,11.08C1095.75,790.61,1101.07,793.46,1106.56,796.39Zm14.12,0c.72-.31,1-.4,1.21-.53q18.1-9.58,36.22-19.15a2.34,2.34,0,0,0,1.42-2.44q0-21.81,0-43.63c0-1.63,0-3.26,0-5.16-.79.38-1.29.59-1.76.83l-9.07,4.72c-8.84,4.6-17.67,9.22-26.54,13.77a2.33,2.33,0,0,0-1.42,2.44q0,21.46-.09,42.95ZM1076.91,714a5,5,0,0,0,.56.48q17.73,9.23,35.48,18.41a2.07,2.07,0,0,0,1.67,0q16.53-8.48,33-17c1-.51,1.91-1.14,3-1.8-.46-.25-.68-.4-.93-.51q-17.42-8.38-34.85-16.72a3,3,0,0,0-2.26.06c-9.11,4.31-18.19,8.69-27.27,13Z" transform="translate(-972 -606.5)"/><g class="cls-3"><path d="M1332,607.5v359H973v-359h359m1-1H972v361h361v-361Z" transform="translate(-972 -606.5)"/></g></svg>