<svg id="Capa_5" data-name="Capa 5" xmlns="http://www.w3.org/2000/svg" viewBox="0 0 361 361"><defs><style>.cls-1{fill:#b9bef9;}.cls-2{fill:#8188fb;}.cls-3{fill:none;stroke:#8188fb;stroke-miterlimit:10;stroke-width:6px;}.cls-4{opacity:0;}</style></defs><path class="cls-1" d="M1199.24,746.17c-16.37-7.79-32.69-15.69-49.07-23.47a4.21,4.21,0,0,0-2.7-.21,2.18,2.18,0,0,0-.45.16c-16.4,7.72-32.75,15.54-49.15,23.28a3,3,0,0,0-2,3.21c.11,7.94.13,15.88.11,23.82q0,16.81-.23,33.64a3.78,3.78,0,0,0,2,3.81q24.14,14.13,48.18,28.45a4.17,4.17,0,0,0,3,.73,5.16,5.16,0,0,0,1.72-.7q24.19-14.29,48.5-28.38a3.6,3.6,0,0,0,2-3.62c0-9.54,0-19.08,0-28.62s0-19.25.09-28.88A3,3,0,0,0,1199.24,746.17Zm-54.64,81.14a9.31,9.31,0,0,1-.16,1.2,10.38,10.38,0,0,1-1.59-.6c-12.65-7.45-25.31-14.89-37.9-22.44a3.79,3.79,0,0,1-1.51-2.74c-.1-10.78,0-21.57,0-32.35q0-5.88.06-11.76c0-.88.08-1.77.16-3.12,5.42,2.36,10.54,4.49,15.58,6.78,7.87,3.57,15.68,7.27,23.54,10.87,1.21.56,2,1.11,2,2.72C1144.65,793,1144.64,810.16,1144.6,827.31Zm6-61a5.13,5.13,0,0,1-1.7.49,5,5,0,0,1-2.7-.52q-12.45-5.74-25-11.34c-3.28-1.47-6.63-2.82-9.92-4.25-.72-.31-1.38-.75-2.39-1.31a15.52,15.52,0,0,1,1.83-1.25c12-5.61,24-11.25,36-16.77a4.5,4.5,0,0,1,2.1-.33,3.7,3.7,0,0,1,1.28.3c12.06,5.68,24.08,11.47,36.09,17.25.37.17.71.4,1.66.94-4.74,2.14-9,4.07-13.24,6C1166.7,759.11,1158.63,762.66,1150.64,766.33Zm42.91,36a3.73,3.73,0,0,1-2.15,3.73c-11.86,6.84-23.64,13.8-35.46,20.71-1,.62-2.12,1.2-3.62,2-.07-1.41-.14-2.22-.14-3,0-16.31.1-32.61.06-48.93,0-2,.57-3.06,2.48-3.9,11.92-5.21,23.76-10.59,35.63-15.91.89-.4,1.79-.76,3.05-1.3.08,1.11.21,1.89.21,2.67C1193.58,773,1193.52,787.68,1193.55,802.32Z" transform="translate(-972 -606.5)"/><path class="cls-2" d="M1313.65,867.16c-1.44-3.73-4.62-5-8.49-5-7.88.06-15.77,0-23.64,0-1.37,0-2.73-.11-4.44-.19h-8.52c-1.18.09-2.26.18-3.34.18q-120.73,0-241.48.11a8.39,8.39,0,0,1-2.51-.29H1011a5.76,5.76,0,0,1-2,.24c-8.3-.14-16.61,0-24.9,0-3.67,0-6.79,1-8.39,4.52-1.7,3.68-1.2,7.84,1.59,10.24,6.37,5.46,12.24,11.11,22.2,11,67-.43,134-.23,201-.23,30.41,0,60.8.06,91.21-.08a20.11,20.11,0,0,0,9.26-2.07,50.94,50.94,0,0,0,10.29-8A9.29,9.29,0,0,0,1313.65,867.16Zm-135.12,2c-4.42,2.84-64.15,2.69-67.59,0ZM1307,872.31c-4.83,3.29-8.07,9-15.09,9q-147.35-.13-294.69-.21c-2.77,0-5.63-1.87-8.27-3.21a20.48,20.48,0,0,1-5-3.79c-1.11-1.12-1.78-2.7-3.15-4.89,2.78-.15,4.28-.3,5.79-.31q55.95,0,111.89-.05c2.45,0,4,.4,5.33,2.91,2.1,4,6,5.94,10.5,6q30.39.14,60.79,0c4.65,0,8.18-2.4,10.85-6.32a6,6,0,0,1,4.15-2.39q57-.2,114-.1a30.1,30.1,0,0,1,3.5.44C1307.37,870.52,1307.53,871.94,1307,872.31Zm-48.9-65.22v0l.25-.23Z" transform="translate(-972 -606.5)"/><rect class="cls-3" x="57.94" y="97.42" width="229.57" height="147.58" rx="1.84"/><path class="cls-2" d="M1266.55,691.5A3.46,3.46,0,0,1,1270,695v164.6a3.46,3.46,0,0,1-3.45,3.45H1022a3.46,3.46,0,0,1-3.45-3.45V695a3.46,3.46,0,0,1,3.45-3.45h244.6m0-5H1022a8.45,8.45,0,0,0-8.45,8.45v164.6A8.45,8.45,0,0,0,1022,868h244.6a8.45,8.45,0,0,0,8.45-8.45V695a8.45,8.45,0,0,0-8.45-8.45Z" transform="translate(-972 -606.5)"/><g class="cls-4"><path d="M1332,607.5v359H973v-359h359m1-1H972v361h361v-361Z" transform="translate(-972 -606.5)"/></g></svg>