<svg id="Capa_5" data-name="Capa 5" xmlns="http://www.w3.org/2000/svg" viewBox="0 0 361 361"><defs><style>.cls-1{opacity:0;}.cls-2{fill:#8188fb;opacity:0.2;}.cls-3,.cls-4{fill:none;stroke-linecap:round;}.cls-3{stroke:#8188fb;stroke-width:7px;}.cls-4{stroke:#b9bef9;stroke-width:8px;}.cls-5{fill:#b9bef9;}</style></defs><g class="cls-1"><path d="M1332,607.5v359H973v-359h359m1-1H972v361h361v-361Z" transform="translate(-972 -606.5)"/></g><rect class="cls-2" x="49.1" y="100.5" width="220" height="136.5"/><path class="cls-3" d="M1282.5,678V831.61c0,3.53-3.18,6.39-7.1,6.39H1026.6c-3.92,0-7.1-2.86-7.1-6.39V678" transform="translate(-972 -606.5)"/><polyline class="cls-3" points="179 258 179 293.49 236.69 319"/><line class="cls-3" x1="122.69" y1="319" x2="179" y2="293.49"/><path class="cls-4" d="M1063.5,769l45-42.74a8.14,8.14,0,0,1,11.09,0l42.27,40.1a8.14,8.14,0,0,0,11.09,0l67.74-64.28" transform="translate(-972 -606.5)"/><path class="cls-5" d="M1241.12,741.07h0a3.82,3.82,0,0,1-3.8-3.87l1.12-29.06a3.85,3.85,0,0,0-4.08-3.88l-30.63,1.06a3.85,3.85,0,0,1-4.08-3.6h0a3.82,3.82,0,0,1,3.79-3.87l39.1-1.35a3.85,3.85,0,0,1,4.08,3.88l-1.43,37.09A3.85,3.85,0,0,1,1241.12,741.07Z" transform="translate(-972 -606.5)"/><line class="cls-3" x1="27.1" y1="44" x2="333.9" y2="44"/></svg>