<svg id="Capa_5" data-name="Capa 5" xmlns="http://www.w3.org/2000/svg" viewBox="0 0 361 361"><defs><style>.cls-1{fill:#67687f;opacity:0.2;}.cls-2{fill:#8188fb;}.cls-3{fill:#b9bef9;}.cls-4{opacity:0;}</style></defs><path class="cls-1" d="M1125.41,744.44V926.66q-45.11-.09-90.2-.23c-12.18,0-22.61-5.12-30.48-15.6a51.08,51.08,0,0,1-10.36-26.39v-140Z" transform="translate(-972 -606.5)"/><path class="cls-2" d="M1270.55,756.91c0-.73-.07-1.46-.12-2.2-.16-.07-.33-.11-.49-.18-2.42,4.91-4.86,9.8-7.27,14.71a3.84,3.84,0,0,0-.15,1.42q0,15.47,0,30.93-.16,56.38-.35,112.76c0,3.8,0,3.8-3.45,3.79l-133.92-.31-24.41-.06c-21.83,0-43.66-.27-65.48-.09-13.88.12-28.48-7.65-34.21-25.33-7.21-22.37,6.37-46.71,27.73-49.61,4.15-.56,8.38-.5,12.81-.76l.19-97.54.07-39.12,189.34.44a15.48,15.48,0,0,0,2.36,0c.57-.09,1.37-.27,1.61-.69.48-.9,1-1.81,1.42-2.75a4,4,0,0,0-3.56-5.79l-191.15-.45.09-49c-2.74,0-5.18,0-7.63,0-11.31-.06-21.11,3.9-29.43,12.62Q991,673.9,990.93,694.38q-.07,25-.12,50.06,0,11,0,22-.12,56.61-.22,113.21c0,1.64.07,3.24.22,4.82a50.35,50.35,0,0,0,10.59,26.39c8.06,10.48,18.72,15.58,31.18,15.6q46.11.14,92.25.23,24.64.08,49.29.12l92.7.22c3.47,0,3.47,0,3.48-3.74q.09-34.65.13-69.25c0-21.48-.16-43-.14-64.47C1270.24,778.67,1270.46,767.78,1270.55,756.91ZM999,694c0-20.22,14-36.19,31.13-37.88,3.3-.32,3.32-.36,3.31,3.17l-.16,85.11-.07,36.08q-.06,24.91-.07,49.84c0,1.94-.26,3-2.38,3.11-12.28.58-22.3,6.33-30.3,16.54a16.49,16.49,0,0,0-.85,1.49c-.25-.17-.5-.31-.76-.47,0-.94-.09-1.87-.09-2.81q.08-51.88.19-103.78Q999,719.24,999,694Z" transform="translate(-972 -606.5)"/><path class="cls-3" d="M1182.81,772c-19-9.07-38-18.25-57.09-27.3a4.83,4.83,0,0,0-3.15-.25,3.09,3.09,0,0,0-.51.18c-19.09,9-38.1,18.09-57.18,27.09a3.49,3.49,0,0,0-2.33,3.73c.13,9.24.15,18.47.13,27.71,0,13.05-.1,26.09-.27,39.13a4.42,4.42,0,0,0,2.38,4.44q28.1,16.44,56.06,33.09a4.77,4.77,0,0,0,3.44.86,6.28,6.28,0,0,0,2-.81q28.14-16.64,56.43-33a4.18,4.18,0,0,0,2.27-4.21c0-11.1,0-22.2,0-33.3s0-22.4.11-33.6A3.53,3.53,0,0,0,1182.81,772Zm-63.57,94.4a10.9,10.9,0,0,1-.18,1.38,11.23,11.23,0,0,1-1.85-.69c-14.72-8.67-29.44-17.33-44.09-26.11a4.39,4.39,0,0,1-1.76-3.18c-.11-12.54-.06-25.1,0-37.64q0-6.84.07-13.68c0-1,.1-2.06.19-3.62,6.31,2.74,12.27,5.21,18.12,7.88,9.16,4.16,18.25,8.46,27.39,12.64,1.41.65,2.34,1.29,2.33,3.16C1119.3,826.48,1119.29,846.43,1119.24,866.39Zm7-70.94a6.51,6.51,0,0,1-2,.57,5.94,5.94,0,0,1-3.14-.62q-14.48-6.67-29-13.18c-3.82-1.72-7.7-3.28-11.53-5-.84-.36-1.62-.88-2.79-1.53a17.65,17.65,0,0,1,2.14-1.45c14-6.53,27.9-13.08,41.91-19.51a5.24,5.24,0,0,1,2.44-.38,4.12,4.12,0,0,1,1.49.34c14,6.61,28,13.35,42,20.07.42.21.83.48,1.92,1.1-5.51,2.49-10.45,4.73-15.4,7C1145,787.05,1135.57,791.17,1126.27,795.45Zm49.92,41.86a4.31,4.31,0,0,1-2.5,4.33c-13.8,8-27.51,16.07-41.26,24.11-1.22.71-2.46,1.39-4.21,2.37-.08-1.63-.16-2.57-.16-3.53,0-19,.11-37.94.07-56.93,0-2.35.66-3.56,2.89-4.53,13.86-6.06,27.64-12.32,41.45-18.5,1-.47,2.07-.89,3.54-1.52.1,1.29.25,2.2.25,3.11C1176.22,803.25,1176.16,820.28,1176.19,837.31Z" transform="translate(-972 -606.5)"/><path class="cls-2" d="M1267.36,679.67c-.43.61-.68.9-.86,1.23-16,29.59-32.08,59.11-47.86,88.81-2,3.73-4.81,7-4.76,12.16,0,9.58-1.19,19.18-1.84,28.77-.25,3.81-.45,7.63-.67,11.71a1.5,1.5,0,0,0,2.36,1.32h0c10.08-7.37,20.15-14.78,30.24-22.13,3.13-2.27,5.92-4.68,7.66-8.39,2.49-5.23,5.48-10.21,8.25-15.3q19.93-37,39.89-73.94c.81-1.5,1.56-3,2.41-4.71ZM1239.58,795.5c-5.89,4.71-11.83,9.39-17.84,13.92-1.8,1.37-3,.36-2.79-2.33.47-6.94.88-13.88,1.44-20.83.24-2.9,1.46-3.58,3.95-2.26,5,2.61,9.9,5.34,14.83,8C1240.87,793,1241.05,794.35,1239.58,795.5Z" transform="translate(-972 -606.5)"/><path class="cls-3" d="M1272.1,670.43c2.42-4.34,4.48-8.5,7-12.39a7.36,7.36,0,0,1,9.88-2.69c7.35,3.88,14.59,8,21.78,12.19,2.76,1.61,4.6,6.52,3.31,9.46-1.92,4.4-4.36,8.56-6.72,13.1Z" transform="translate(-972 -606.5)"/><g class="cls-4"><path d="M1332,607.5v359H973v-359h359m1-1H972v361h361v-361Z" transform="translate(-972 -606.5)"/></g></svg>